<svg width="306" height="107" viewBox="0 0 306 107" fill="none" xmlns="http://www.w3.org/2000/svg">
<g clip-path="url(#clip0_5131_9)">
<path d="M39.5387 16.8036C32.1146 17.5574 25.2593 19.961 19.4424 23.8579C13.7534 27.6553 9.3018 32.3771 5.84575 38.2225C3.25727 42.6315 1.36569 47.9933 0.555008 53.2841C0.128335 55.9579 0.0287785 61.4193 0.341672 64.0789C0.455451 65.1314 0.597675 66.1127 0.654565 66.2407C0.739899 66.4683 3.61283 66.4825 43.4498 66.4825H86.1455L86.3162 65.2736C86.9704 60.5944 86.7286 55.1472 85.6762 50.4396C83.8842 42.4182 79.9303 35.2216 74.156 29.4473C67.1017 22.4072 57.9994 18.0125 48.2001 16.9174C46.4792 16.7325 41.0036 16.6471 39.5387 16.8036ZM45.9387 30.8553C51.2437 31.154 57.3167 33.5718 61.7967 37.1701C65.0537 39.7728 67.5426 42.8448 69.4769 46.6422C70.3586 48.3631 71.3115 50.8378 71.596 52.1463L71.6813 52.5445H43.3787H15.0761L15.1614 52.1463C15.6165 50.0414 17.4086 46.0306 18.9162 43.7977C23.2824 37.2696 29.967 32.8038 37.6186 31.282C39.4533 30.9264 42.5823 30.642 43.8054 30.7273C44.1609 30.7558 45.1138 30.8127 45.9387 30.8553Z" fill="#F7F7F7"/>
<path d="M63.7883 80.0079C57.9003 85.9671 49.4948 89.1245 41.0751 88.5272C36.5666 88.2001 32.5701 86.9769 28.6163 84.7298C26.3265 83.4071 25.1034 82.4684 22.9416 80.3635L21.4767 78.9413L21.1638 79.2257C20.9789 79.3964 18.6891 81.4017 16.0721 83.6915C13.4552 85.9814 11.2223 87.9298 11.137 88.0152C10.7814 88.3423 14.2659 91.7414 17.2953 94.0455C19.0304 95.3539 21.562 96.9326 23.5958 97.9709C30.4083 101.441 37.6618 102.963 45.413 102.579C55.9518 102.053 66.0924 97.53 73.7156 89.9352C74.6258 89.0107 75.3796 88.2143 75.3796 88.1432C75.3796 88.0436 65.2248 78.9839 65.0115 78.8844C64.9688 78.8701 64.4141 79.3679 63.7883 80.0079Z" fill="#F7F7F7"/>
</g>
<rect x="102.18" y="30.0572" width="1.92793" height="74.2252" rx="0.963964" fill="#DFDFDF"/>
<path d="M158.163 35.8952C158.163 27.4316 151.771 20.3884 142.775 20.3884C133.779 20.3884 126.972 27.4316 126.972 37.0197C126.972 46.3711 133.66 53.7102 143.308 53.7102C149.818 53.7102 155.026 50.3958 156.98 45.8385L151.12 42.9975C149.7 45.6017 147.155 47.4365 143.367 47.4365C138.454 47.4365 134.726 44.1813 134.37 39.0912H157.808C158.045 38.1443 158.163 37.0197 158.163 35.8952ZM134.489 33.5869C135.317 28.9112 138.632 26.307 142.775 26.307C146.859 26.307 150.292 29.3255 150.528 33.5869H134.489ZM185.995 8.90629V24.6498C183.746 21.9273 180.076 20.3884 175.815 20.3884C166.819 20.3884 159.716 27.6091 159.716 37.0789C159.716 46.4895 166.7 53.7102 175.874 53.7102C180.136 53.7102 183.983 52.1122 186.35 49.2713V53H193.097V8.90629H185.995ZM176.585 47.1406C171.08 47.1406 167.115 42.9383 167.115 37.0789C167.115 31.2195 171.08 26.9581 176.585 26.9581C182.03 26.9581 185.995 31.2195 185.995 37.0789C185.995 42.9975 182.03 47.1406 176.585 47.1406ZM218.809 21.0986V40.0382C218.809 44.3588 216.086 47.1406 212.062 47.1406C207.978 47.1406 205.255 44.3588 205.255 40.0382V21.0986H198.153V40.926C198.153 48.2651 203.124 53.7102 210.227 53.7102C214.133 53.7102 217.388 52.1122 219.164 49.3305V53H225.911V21.0986H218.809ZM146.03 71.3884C141.71 71.3884 138.099 72.9273 135.85 75.5906V59.9063H128.748V104H135.436V100.212C137.744 103.112 141.591 104.71 145.971 104.71C155.086 104.71 162.129 97.4895 162.129 88.0789C162.129 78.6091 155.026 71.3884 146.03 71.3884ZM145.261 98.1406C139.756 98.1406 135.85 93.9975 135.85 88.0789C135.85 82.2195 139.756 77.9581 145.261 77.9581C150.706 77.9581 154.73 82.2195 154.73 88.0789C154.73 93.9383 150.706 98.1406 145.261 98.1406ZM186.064 72.0986V91.0382C186.064 95.3588 183.342 98.1406 179.317 98.1406C175.233 98.1406 172.511 95.3588 172.511 91.0382V72.0986H165.408V91.926C165.408 99.2651 170.38 104.71 177.482 104.71C181.389 104.71 184.644 103.112 186.42 100.33V104H193.167V72.0986H186.064ZM214.189 71.7435C210.283 71.7435 207.205 73.0456 205.548 76.5376V72.0986H198.86V104H205.963V85.9482C205.963 80.9766 208.922 78.1356 213.302 78.1356H217.149V71.7435H214.189ZM236.135 71.3884C232.17 71.3884 228.855 72.9864 227.08 75.9458V72.0986H220.392V104H227.494V85.0604C227.494 80.7398 230.216 77.9581 234.3 77.9581C238.325 77.9581 241.047 80.7398 241.047 85.0604V104H248.15V83.2848C248.15 76.3009 243.237 71.3884 236.135 71.3884ZM282.667 86.8952C282.667 78.4316 276.275 71.3884 267.279 71.3884C258.282 71.3884 251.476 78.4316 251.476 88.0197C251.476 97.3711 258.164 104.71 267.811 104.71C274.322 104.71 279.53 101.396 281.483 96.8385L275.624 93.9975C274.203 96.6017 271.658 98.4365 267.87 98.4365C262.958 98.4365 259.229 95.1813 258.874 90.0912H282.312C282.549 89.1443 282.667 88.0197 282.667 86.8952ZM258.992 84.5869C259.821 79.9112 263.136 77.307 267.279 77.307C271.362 77.307 274.795 80.3255 275.032 84.5869H258.992ZM301.325 71.7435C297.419 71.7435 294.341 73.0456 292.684 76.5376V72.0986H285.996V104H293.098V85.9482C293.098 80.9766 296.057 78.1356 300.437 78.1356H304.284V71.7435H301.325Z" fill="#F7F7F7"/>
<defs>
<clipPath id="clip0_5131_9">
<rect width="86.7568" height="86.1879" fill="white" transform="translate(0 16.5617)"/>
</clipPath>
</defs>
</svg>
